HIERARCHY
ROOT RootJoint
{
    OFFSET   0.000000   0.000000   0.000000
    CHANNELS 6 Xposition Yposition Zposition Xrotation Yrotation Zrotation
    JOINT pelvis_lowerback
    {
        OFFSET   0.000000   0.093605   0.000000
        CHANNELS 3 Xrotation Yrotation Zrotation
        JOINT lowerback_torso
        {
            OFFSET   0.000000   0.100000   0.000000
            CHANNELS 3 Xrotation Yrotation Zrotation
            JOINT torso_head
            {
                OFFSET   0.000000   0.282350   0.000000
                CHANNELS 3 Xrotation Yrotation Zrotation
                End Site
                {
                    OFFSET   0.000000   0.192650   0.000000
                }
            }
            JOINT rTorso_Clavicle
            {
                OFFSET  -0.001000   0.157500   0.000000
                CHANNELS 3 Xrotation Yrotation Zrotation
                JOINT rShoulder
                {
                    OFFSET  -0.117647   0.000000   0.000000
                    CHANNELS 3 Xrotation Yrotation Zrotation
                    JOINT rElbow
                    {
                        OFFSET  -0.245000   0.000000   0.000000
                        CHANNELS 3 Xrotation Yrotation Zrotation
                        JOINT rWrist
                        {
                            OFFSET  -0.240000   0.000000   0.000000
                            CHANNELS 3 Xrotation Yrotation Zrotation
                            End Site
                            {
                                OFFSET  -0.116353  -0.002500   0.000000
                            }
                        }
                    }
                }
            }
            JOINT lTorso_Clavicle
            {
                OFFSET   0.001000   0.157500   0.000000
                CHANNELS 3 Xrotation Yrotation Zrotation
                JOINT lShoulder
                {
                    OFFSET   0.117647   0.000000   0.000000
                    CHANNELS 3 Xrotation Yrotation Zrotation
                    JOINT lElbow
                    {
                        OFFSET   0.245000   0.000000   0.000000
                        CHANNELS 3 Xrotation Yrotation Zrotation
                        JOINT lWrist
                        {
                            OFFSET   0.240000   0.000000   0.000000
                            CHANNELS 3 Xrotation Yrotation Zrotation
                            End Site
                            {
                                OFFSET   0.116353  -0.002500   0.000000
                            }
                        }
                    }
                }
            }
        }
    }
    JOINT rHip
    {
        OFFSET  -0.100000  -0.051395   0.000000
        CHANNELS 3 Xrotation Yrotation Zrotation
        JOINT rKnee
        {
            OFFSET   0.000000  -0.410000   0.000000
            CHANNELS 3 Xrotation Yrotation Zrotation
            JOINT rAnkle
            {
                OFFSET   0.000000  -0.390000   0.000000
                CHANNELS 3 Xrotation Yrotation Zrotation
                JOINT rToeJoint
                {
                    OFFSET   0.000000  -0.050000   0.130000
                    CHANNELS 3 Xrotation Yrotation Zrotation
                    End Site
                    {
                        OFFSET  -0.010000   0.002000   0.060000
                    }
                }
            }
        }
    }
    JOINT lHip
    {
        OFFSET   0.100000  -0.051395   0.000000
        CHANNELS 3 Xrotation Yrotation Zrotation
        JOINT lKnee
        {
            OFFSET   0.000000  -0.410000   0.000000
            CHANNELS 3 Xrotation Yrotation Zrotation
            JOINT lAnkle
            {
                OFFSET   0.000000  -0.390000   0.000000
                CHANNELS 3 Xrotation Yrotation Zrotation
                JOINT lToeJoint
                {
                    OFFSET   0.000000  -0.050000   0.130000
                    CHANNELS 3 Xrotation Yrotation Zrotation
                    End Site
                    {
                        OFFSET   0.010000   0.002000   0.060000
                    }
                }
            }
        }
    }
}
MOTION
Frames: 17
Frame Time:   0.008333
 -2.376719   0.925631   3.975860   0.000000   0.000000   0.000000   0.000000   0.000000   0.000000   0.000000   0.000000   0.000000   0.000000   0.000000   0.000000   0.000000   0.000000   0.000000   0.000000   0.000000   0.000000   0.000000   0.000000   0.000000   0.000000   0.000000   0.000000   0.000000   0.000000   0.000000   0.000000   0.000000   0.000000   0.000000   0.000000   0.000000   0.000000   0.000000   0.000000   0.000000   0.000000   0.000000   0.000000   0.000000   0.000000   0.000000   0.000000   0.000000   0.000000   0.000000   0.000000   0.000000   0.000000   0.000000   0.000000   0.000000   0.000000   0.000000   0.000000   0.000000   0.000000   0.000000   0.000000
 -2.376572   0.926234   3.975757  -0.435119   0.067034   0.058955   0.414654   0.018135  -0.043250   0.204248  -0.199397  -0.023667  -0.144584   0.079248   0.006295   0.178808  -0.204439   0.428815   0.883598   0.362161   2.005420   0.024831   1.163981  -0.012895   0.435545  -0.723306  -2.707473   0.239245   0.190477  -0.480706   1.222075  -0.136157  -1.927015   0.023891  -1.124168   0.016378   0.497228   0.613458   2.645617   0.158905   0.097201  -0.207059   0.870126   0.001138   0.001237  -0.855731  -0.098553  -0.020919  -0.081751  -0.000120  -0.000048   0.204329  -0.185840   0.043084   0.959981  -0.000863  -0.000985  -0.946053   0.245694   0.188789   0.287159  -0.000724   0.000320
 -2.376402   0.927256   3.975615  -0.931693   0.144439   0.123877   0.821885   0.014978  -0.084735   0.466963  -0.415539  -0.050293  -0.263959   0.152902   0.011684   0.354149  -0.285604   1.578801   1.732620   0.860681   4.589547   0.058143   2.316451  -0.022715   0.903068  -1.044788  -4.683688   0.478615   0.244038  -1.684288   2.412804  -0.426449  -4.441328   0.055977  -2.234352   0.029138   1.037196   0.866553   4.555139   0.324594   0.190530  -0.527355   1.801111   0.003053   0.002302  -1.654231  -0.191679  -0.042790  -0.193228  -0.000366  -0.000115   0.487065  -0.360331   0.181794   2.001379  -0.002576  -0.001593  -1.829276   0.475418   0.369676   0.512967  -0.001332   0.000526
 -2.376229   0.928278   3.975464  -1.413210   0.220772   0.186431   1.198196  -0.004456  -0.121826   0.715982  -0.634505  -0.074701  -0.377723   0.221335   0.017086   0.514232  -0.274681   3.163569   2.536212   1.460766   7.548734   0.091342   3.417303  -0.029289   1.362017  -1.159952  -5.827234   0.699026   0.189819  -3.321373   3.560991  -0.850702  -7.335499   0.088112  -3.298563   0.038275   1.566034   0.909542   5.631776   0.455860   0.274229  -0.929492   2.680365   0.005153   0.002900  -2.399178  -0.279590  -0.065161  -0.299970  -0.000632  -0.000159   0.798697  -0.518257   0.408351   3.005962  -0.004638  -0.001812  -2.653237   0.688685   0.542411   0.716054  -0.001878   0.000671
 -2.376056   0.929001   3.975334  -1.863783   0.289783   0.245093   1.544696  -0.036567  -0.155136   0.940102  -0.853122  -0.096207  -0.489453   0.285159   0.022595   0.657798  -0.205798   4.990397   3.291794   2.143662  10.756941   0.120354   4.459961  -0.033337   1.809871  -1.155496  -6.354598   0.896276   0.064147  -5.197488   4.664397  -1.392776 -10.478948   0.116378  -4.311250   0.044648   2.082300   0.813956   6.096692   0.548367   0.349729  -1.394202   3.492765   0.007121   0.003081  -3.095496  -0.362460  -0.087731  -0.404817  -0.000901  -0.000181   1.125243  -0.661160   0.707931   3.956089  -0.006722  -0.001780  -3.423185   0.886618   0.707161   0.896269  -0.002319   0.000755
 -2.375885   0.929202   3.975254  -2.280810   0.346795   0.299584   1.863895  -0.078943  -0.185276   1.140209  -1.069804  -0.115059  -0.597838   0.344737   0.028063   0.784733  -0.104286   6.931794   3.996843   2.893754  14.129150   0.143465   5.442076  -0.035470   2.244002  -1.080918  -6.467221   1.068257  -0.105366  -7.184465   5.719717  -2.037473 -13.783444   0.139090  -5.269922   0.048940   2.583921   0.626691   6.154322   0.605989   0.418853  -1.906305   4.240700   0.008801   0.002943  -3.746485  -0.440424  -0.110252  -0.507027  -0.001152  -0.000183   1.461758  -0.790574   1.065823   4.851792  -0.008636  -0.001612  -4.142775   1.070241   0.864057   1.056397  -0.002645   0.000786
 -2.375764   0.928702   3.975240  -2.665395   0.388244   0.353102   2.158457  -0.129855  -0.220425   1.319795  -1.283898  -0.147598  -0.701748   0.400344   0.037901   0.896456   0.012235   8.911919   4.649231   3.698765  17.614343   0.160285   6.363596  -0.036172   2.661622  -0.967776  -6.304571   1.216681  -0.300386  -9.252309   6.668225  -2.734707 -17.034075   0.155275  -6.176220   0.051200   3.069862   0.365384   5.868984   0.633876   0.483154  -2.451924   4.929614   0.010103   0.002582  -4.355060  -0.513690  -0.132585  -0.605921  -0.001369  -0.000167   1.805487  -0.907747   1.469857   5.696270  -0.010312  -0.001389  -4.815207   1.240475   1.013181   1.199255  -0.002869   0.000776
 -2.375707   0.926784   3.974651  -2.745666   0.387079   0.326359   2.258916  -0.199509  -0.154546   1.442749  -1.451787  -0.188238  -0.905162   0.327058  -0.035444   1.061020   0.277854  10.212359   5.284287   4.443283  21.101153   0.176766   7.465396  -0.039761   3.011425  -0.855654  -5.147825   1.408466  -0.522750 -10.544389   7.506081  -3.477011 -20.323702   0.167310  -7.192489   0.055071   3.513660  -0.010397   4.543277   0.126501   0.334894  -2.851979   6.050959   0.012168  -0.000242  -4.683728  -0.646277   0.114565  -0.613858  -0.001108  -0.000113   1.854359  -0.915962   1.905331   6.064484  -0.009567  -0.000945  -5.250535   1.453353   1.134895   1.345406  -0.002961   0.000914
 -2.375659   0.923673   3.973893  -2.796143   0.420017   0.285287   2.393157  -0.285527  -0.077667   1.556181  -1.618566  -0.209455  -1.102082   0.252476  -0.112720   1.190717   0.571709  11.268615   5.826229   5.200064  24.252718   0.182544   8.510794  -0.041886   3.360390  -0.642889  -4.027118   1.562036  -0.773683 -11.555692   8.240817  -4.235664 -23.261719   0.169632  -8.157378   0.057184   3.945068  -0.487837   3.294376  -0.384983   0.184260  -3.185854   7.130958   0.013107  -0.002195  -4.982164  -0.773576   0.344791  -0.582960  -0.000846  -0.000167   1.834402  -0.923100   2.299431   6.313131  -0.008412  -0.000576  -5.660815   1.651604   1.250422   1.482786  -0.002913   0.001036
 -2.375598   0.919483   3.973098  -2.834481   0.467521   0.239952   2.544036  -0.368746   0.004804   1.670232  -1.777120  -0.214443  -1.280711   0.182603  -0.186948   1.291230   0.868747  12.149176   6.286579   5.945025  27.116076   0.181030   9.494246  -0.042615   3.698533  -0.392961  -3.097488   1.683012  -1.031526 -12.369940   8.884743  -4.986482 -25.903351   0.165564  -9.065163   0.057558   4.356669  -0.989883   2.279007  -0.860514   0.046123  -3.471959   8.139874   0.013208  -0.003407  -5.259833  -0.893085   0.559221  -0.550973  -0.000644  -0.000204   1.769161  -0.929741   2.642214   6.511570  -0.007235  -0.000300  -6.045778   1.835523   1.359549   1.606847  -0.002751   0.001106
 -2.375477   0.919010   3.972665  -3.028436   0.319894   0.380524   2.790798  -0.373042  -0.060693   1.857275  -1.869681  -0.277073  -1.441486   0.119951  -0.263792   1.361729   1.193148  13.190710   6.667156   6.689357  29.834848   0.177549  10.411465  -0.041942   4.023503  -0.165672  -2.375578   1.787889  -1.276265 -13.296873   9.451045  -5.711611 -28.374210   0.159621  -9.899200   0.056642   4.743295  -1.394519   1.520085  -1.329037  -0.139242  -3.699278   9.291686   0.010826  -0.006847  -5.251094  -1.053219   0.865262  -0.429246  -0.000750  -0.000748   1.699757  -0.930516   2.477764   7.032042  -0.005786  -0.000778  -6.144229   1.964982   1.288511   1.006594  -0.002637   0.000889
 -2.375462   0.918644   3.972552  -3.167094   0.193760   0.491763   2.954176  -0.396914  -0.077855   2.011076  -1.962226  -0.325441  -1.581969   0.060320  -0.340103   1.435358   1.475679  14.041139   6.997531   7.394540  32.366529   0.170204  11.275366  -0.040054   4.332844   0.102979  -1.576262   1.895521  -1.483202 -14.045973   9.959136  -6.403056 -30.675148   0.150685 -10.685101   0.054514   5.108574  -1.828468   0.697615  -1.699680  -0.250819  -3.868382  10.234999   0.008659  -0.007943  -5.465770  -1.149785   1.038614  -0.358444  -0.000679  -0.000832   1.647977  -0.936659   2.341746   7.457972  -0.004621  -0.001032  -6.339964   2.104704   1.357517   0.927603  -0.002074   0.000693
 -2.375569   0.918329   3.972566  -3.258334   0.151830   0.586745   3.083383  -0.449815  -0.070620   2.130111  -2.072100  -0.352151  -1.718721   0.003507  -0.409188   1.509039   1.720545  14.769190   7.285989   8.048681  34.689366   0.160117  12.077317  -0.037613   4.624359   0.351337  -0.855845   1.990084  -1.674442 -14.675382  10.410458  -7.059674 -32.775812   0.139793 -11.418402   0.051479   5.453418  -2.250380  -0.037103  -2.014310  -0.281877  -3.993296  11.044363   0.006893  -0.007222  -5.780841  -1.161889   1.218204  -0.307389  -0.000613  -0.000720   1.570390  -0.946742   2.239697   7.828227  -0.003710  -0.000933  -6.532078   2.237016   1.432864   0.973072  -0.001687   0.000593
 -2.375756   0.918151   3.972584  -3.246229   0.115952   0.658865   3.165490  -0.484120  -0.091742   2.196770  -2.115121  -0.293197  -1.827050  -0.067630  -0.478210   1.603025   1.843969  15.007933   7.580153   8.649165  36.510129   0.147184  12.956591  -0.036019   4.861277   0.781709   0.599365   2.131434  -1.830805 -14.822805  10.680282  -7.731417 -34.595727   0.128322 -12.272305   0.048874   5.737864  -2.726227  -1.344591  -2.283890  -0.343183  -4.085496  11.538126   0.005440  -0.006349  -5.950689  -1.203161   1.326067  -0.115997  -0.000656  -0.000848   1.479201  -0.909132   2.167219   8.002190  -0.002972  -0.000725  -6.650622   2.327421   1.559980   1.126385  -0.001517   0.000613
 -2.376026   0.918048   3.972557  -3.173268   0.085080   0.728409   3.236539  -0.513936  -0.113678   2.227853  -2.154712  -0.236721  -1.924696  -0.131866  -0.535525   1.670786   1.947055  14.930311   7.844801   9.189684  37.997567   0.130843  13.776264  -0.033888   5.084100   1.221690   1.772651   2.243802  -1.976975 -14.693545  10.916800  -8.343621 -36.111581   0.114129 -13.072800   0.045728   6.001087  -3.227688  -2.401721  -2.560450  -0.403640  -4.166678  11.914043   0.004277  -0.005473  -6.088404  -1.245634   1.413369  -0.074454  -0.000557  -0.000734   1.367622  -0.870455   2.104168   8.089422  -0.002384  -0.000568  -6.790094   2.414164   1.682802   1.310552  -0.001413   0.000660
 -2.376392   0.917991   3.972517  -3.065133   0.054733   0.794338   3.304851  -0.543174  -0.135446   2.239561  -2.194323  -0.189946  -2.013489  -0.191238  -0.586623   1.715820   2.036860  14.644354   8.083241   9.678201  39.229886   0.113631  14.536847  -0.031410   5.295315   1.609506   2.610427   2.337148  -2.110790 -14.379517  11.130262  -8.895515 -37.386228   0.099270 -13.814072   0.042310   6.250727  -3.672744  -3.159283  -2.839715  -0.464058  -4.236544  12.221956   0.003343  -0.004685  -6.218215  -1.291464   1.491217   0.088917  -0.000569  -0.000806   1.248314  -0.834569   2.051519   8.121925  -0.001911  -0.000451  -6.941975   2.494815   1.799197   1.477849  -0.001308   0.000670
 -2.376858   0.917965   3.972493  -2.935251   0.023745   0.854708   3.371723  -0.572408  -0.157629   2.240411  -2.233661  -0.152190  -2.094258  -0.246524  -0.633545   1.745005   2.114278  14.222905   8.300376  10.120019  40.264789   0.097030  15.241930  -0.028773   5.497672   1.939035   3.182460   2.417960  -2.230702 -13.945194  11.326102  -9.392561 -38.471781   0.085013 -14.499131   0.038809   6.490572  -4.047458  -3.679674  -3.115865  -0.522423  -4.292645  12.482194   0.002595  -0.003993  -6.346442  -1.336945   1.563557   0.250231  -0.000582  -0.000854   1.127131  -0.802161   2.011423   8.118336  -0.001528  -0.000361  -7.099329   2.569463   1.909646   1.629594  -0.001207   0.000651
